<?xml version="1.0" standalone="no"?>
<!DOCTYPE svg PUBLIC "-//W3C//DTD SVG 20010904//EN"
 "http://www.w3.org/TR/2001/REC-SVG-20010904/DTD/svg10.dtd">
<svg version="1.0" xmlns="http://www.w3.org/2000/svg"
 width="100.000000pt" height="100.000000pt" viewBox="0 0 100.000000 100.000000"
 preserveAspectRatio="xMidYMid meet">

<g transform="translate(0.000000,100.000000) scale(0.100000,-0.100000)"
fill="#000000" stroke="none">
<path d="M340 761 c0 -5 -3 -16 -6 -25 -5 -13 3 -16 50 -16 53 0 56 1 56 25 0
23 -3 25 -50 25 -27 0 -50 -4 -50 -9z"/>
<path d="M557 743 c4 -27 7 -28 59 -28 53 0 55 1 52 25 -3 23 -8 25 -59 28
l-56 3 4 -28z"/>
<path d="M440 523 c1 -25 20 -34 66 -31 37 2 50 7 52 21 3 15 -5 17 -57 17
-34 0 -61 -3 -61 -7z"/>
<path d="M191 443 c-1 -9 -25 -13 -84 -13 -46 0 -86 -2 -89 -5 -9 -10 11 -84
38 -142 31 -65 117 -160 182 -201 152 -98 372 -98 524 0 65 41 151 136 182
201 29 62 48 135 36 142 -4 3 -42 4 -83 4 -42 0 -81 2 -87 6 -9 5 -10 -10 -5
-58 6 -52 3 -77 -11 -117 -18 -50 -18 -50 -62 -50 l-43 0 2 -52 3 -53 -197 -3
-197 -2 6 55 7 55 -42 0 c-41 0 -43 1 -65 51 -19 45 -21 60 -14 107 5 31 7 63
5 71 -3 9 -5 10 -6 4z"/>
<path d="M528 433 c12 -2 32 -2 45 0 12 2 2 4 -23 4 -25 0 -35 -2 -22 -4z"/>
</g>
</svg>
